<svg id="visual" viewBox="0 0 960 540" width="960" height="540" xmlns="http://www.w3.org/2000/svg" xmlns:xlink="http://www.w3.org/1999/xlink" version="1.1"><rect x="0" y="0" width="960" height="540" fill="#000"></rect><path d="M0 359L17.8 346.7C35.7 334.3 71.3 309.7 106.8 297.3C142.3 285 177.7 285 213.2 294.2C248.7 303.3 284.3 321.7 320 323.8C355.7 326 391.3 312 426.8 313.3C462.3 314.7 497.7 331.3 533.2 324.5C568.7 317.7 604.3 287.3 640 283C675.7 278.7 711.3 300.3 746.8 299.3C782.3 298.3 817.7 274.7 853.2 271.2C888.7 267.7 924.3 284.3 942.2 292.7L960 301L960 0L942.2 0C924.3 0 888.7 0 853.2 0C817.7 0 782.3 0 746.8 0C711.3 0 675.7 0 640 0C604.3 0 568.7 0 533.2 0C497.7 0 462.3 0 426.8 0C391.3 0 355.7 0 320 0C284.3 0 248.7 0 213.2 0C177.7 0 142.3 0 106.8 0C71.3 0 35.7 0 17.8 0L0 0Z" fill="#000000"></path><path d="M0 262L17.8 259C35.7 256 71.3 250 106.8 238.7C142.3 227.3 177.7 210.7 213.2 210.2C248.7 209.7 284.3 225.3 320 228C355.7 230.7 391.3 220.3 426.8 215.2C462.3 210 497.7 210 533.2 209.5C568.7 209 604.3 208 640 210.7C675.7 213.3 711.3 219.7 746.8 229.5C782.3 239.3 817.7 252.7 853.2 260.5C888.7 268.3 924.3 270.7 942.2 271.8L960 273L960 0L942.2 0C924.3 0 888.7 0 853.2 0C817.7 0 782.3 0 746.8 0C711.3 0 675.7 0 640 0C604.3 0 568.7 0 533.2 0C497.7 0 462.3 0 426.8 0C391.3 0 355.7 0 320 0C284.3 0 248.7 0 213.2 0C177.7 0 142.3 0 106.8 0C71.3 0 35.7 0 17.8 0L0 0Z" fill="#030303"></path><path d="M0 209L17.8 198.7C35.7 188.3 71.3 167.7 106.8 174.8C142.3 182 177.7 217 213.2 230.2C248.7 243.3 284.3 234.7 320 217C355.7 199.3 391.3 172.7 426.8 161.7C462.3 150.7 497.7 155.3 533.2 171.3C568.7 187.3 604.3 214.7 640 214.5C675.7 214.3 711.3 186.7 746.8 179C782.3 171.3 817.7 183.7 853.2 187.7C888.7 191.7 924.3 187.3 942.2 185.2L960 183L960 0L942.2 0C924.3 0 888.7 0 853.2 0C817.7 0 782.3 0 746.8 0C711.3 0 675.7 0 640 0C604.3 0 568.7 0 533.2 0C497.7 0 462.3 0 426.8 0C391.3 0 355.7 0 320 0C284.3 0 248.7 0 213.2 0C177.7 0 142.3 0 106.8 0C71.3 0 35.7 0 17.8 0L0 0Z" fill="#060606"></path><path d="M0 192L17.8 191.5C35.7 191 71.3 190 106.8 179.3C142.3 168.7 177.7 148.3 213.2 146C248.7 143.7 284.3 159.3 320 165.8C355.7 172.3 391.3 169.7 426.8 162.2C462.3 154.7 497.7 142.3 533.2 135.7C568.7 129 604.3 128 640 129.2C675.7 130.3 711.3 133.7 746.8 142.2C782.3 150.7 817.7 164.3 853.2 160.8C888.7 157.3 924.3 136.7 942.2 126.3L960 116L960 0L942.2 0C924.3 0 888.7 0 853.2 0C817.7 0 782.3 0 746.8 0C711.3 0 675.7 0 640 0C604.3 0 568.7 0 533.2 0C497.7 0 462.3 0 426.8 0C391.3 0 355.7 0 320 0C284.3 0 248.7 0 213.2 0C177.7 0 142.3 0 106.8 0C71.3 0 35.7 0 17.8 0L0 0Z" fill="#080808"></path><path d="M0 122L17.8 118.5C35.7 115 71.3 108 106.8 102.5C142.3 97 177.7 93 213.2 98.3C248.7 103.7 284.3 118.3 320 117.8C355.7 117.3 391.3 101.7 426.8 97.5C462.3 93.3 497.7 100.7 533.2 105.8C568.7 111 604.3 114 640 110.7C675.7 107.3 711.3 97.7 746.8 98.2C782.3 98.7 817.7 109.3 853.2 106.2C888.7 103 924.3 86 942.2 77.5L960 69L960 0L942.2 0C924.3 0 888.7 0 853.2 0C817.7 0 782.3 0 746.8 0C711.3 0 675.7 0 640 0C604.3 0 568.7 0 533.2 0C497.7 0 462.3 0 426.8 0C391.3 0 355.7 0 320 0C284.3 0 248.7 0 213.2 0C177.7 0 142.3 0 106.8 0C71.3 0 35.7 0 17.8 0L0 0Z" fill="#0b0b0b"></path><path d="M0 46L17.8 43.3C35.7 40.7 71.3 35.3 106.8 34.8C142.3 34.3 177.7 38.7 213.2 42.3C248.7 46 284.3 49 320 50.2C355.7 51.3 391.3 50.7 426.8 56.8C462.3 63 497.7 76 533.2 73.7C568.7 71.3 604.3 53.7 640 50.5C675.7 47.3 711.3 58.7 746.8 64.7C782.3 70.7 817.7 71.3 853.2 69.5C888.7 67.7 924.3 63.3 942.2 61.2L960 59L960 0L942.2 0C924.3 0 888.7 0 853.2 0C817.7 0 782.3 0 746.8 0C711.3 0 675.7 0 640 0C604.3 0 568.7 0 533.2 0C497.7 0 462.3 0 426.8 0C391.3 0 355.7 0 320 0C284.3 0 248.7 0 213.2 0C177.7 0 142.3 0 106.8 0C71.3 0 35.7 0 17.8 0L0 0Z" fill="#0d0d0d"></path></svg>