<svg id="visual" viewBox="0 0 900 600" width="900" height="600" xmlns="http://www.w3.org/2000/svg" xmlns:xlink="http://www.w3.org/1999/xlink" version="1.1"><rect x="0" y="0" width="900" height="600" fill="#000"></rect><path d="M0 349L16.7 337C33.3 325 66.7 301 100 289C133.3 277 166.7 277 200 285.8C233.3 294.7 266.7 312.3 300 314.5C333.3 316.7 366.7 303.3 400 304.7C433.3 306 466.7 322 500 315.3C533.3 308.7 566.7 279.3 600 275.2C633.3 271 666.7 292 700 291C733.3 290 766.7 267 800 263.5C833.3 260 866.7 276 883.3 284L900 292L900 0L883.3 0C866.7 0 833.3 0 800 0C766.7 0 733.3 0 700 0C666.7 0 633.3 0 600 0C566.7 0 533.3 0 500 0C466.7 0 433.3 0 400 0C366.7 0 333.3 0 300 0C266.7 0 233.3 0 200 0C166.7 0 133.3 0 100 0C66.7 0 33.3 0 16.7 0L0 0Z" fill="#000000"></path><path d="M0 255L16.7 252C33.3 249 66.7 243 100 232C133.3 221 166.7 205 200 204.5C233.3 204 266.7 219 300 221.5C333.3 224 366.7 214 400 209C433.3 204 466.7 204 500 203.5C533.3 203 566.7 202 600 204.7C633.3 207.3 666.7 213.7 700 223.3C733.3 233 766.7 246 800 253.5C833.3 261 866.7 263 883.3 264L900 265L900 0L883.3 0C866.7 0 833.3 0 800 0C766.7 0 733.3 0 700 0C666.7 0 633.3 0 600 0C566.7 0 533.3 0 500 0C466.7 0 433.3 0 400 0C366.7 0 333.3 0 300 0C266.7 0 233.3 0 200 0C166.7 0 133.3 0 100 0C66.7 0 33.3 0 16.7 0L0 0Z" fill="#030303"></path><path d="M0 203L16.7 192.8C33.3 182.7 66.7 162.3 100 169.3C133.3 176.3 166.7 210.7 200 223.7C233.3 236.7 266.7 228.3 300 211.2C333.3 194 366.7 168 400 157.2C433.3 146.3 466.7 150.7 500 166.2C533.3 181.7 566.7 208.3 600 208.3C633.3 208.3 666.7 181.7 700 174.3C733.3 167 766.7 179 800 182.7C833.3 186.3 866.7 181.7 883.3 179.3L900 177L900 0L883.3 0C866.7 0 833.3 0 800 0C766.7 0 733.3 0 700 0C666.7 0 633.3 0 600 0C566.7 0 533.3 0 500 0C466.7 0 433.3 0 400 0C366.7 0 333.3 0 300 0C266.7 0 233.3 0 200 0C166.7 0 133.3 0 100 0C66.7 0 33.3 0 16.7 0L0 0Z" fill="#060606"></path><path d="M0 187L16.7 186.5C33.3 186 66.7 185 100 174.5C133.3 164 166.7 144 200 141.7C233.3 139.3 266.7 154.7 300 161C333.3 167.3 366.7 164.7 400 157.5C433.3 150.3 466.7 138.7 500 132.3C533.3 126 566.7 125 600 126C633.3 127 666.7 130 700 138.2C733.3 146.3 766.7 159.7 800 156.2C833.3 152.7 866.7 132.3 883.3 122.2L900 112L900 0L883.3 0C866.7 0 833.3 0 800 0C766.7 0 733.3 0 700 0C666.7 0 633.3 0 600 0C566.7 0 533.3 0 500 0C466.7 0 433.3 0 400 0C366.7 0 333.3 0 300 0C266.7 0 233.3 0 200 0C166.7 0 133.3 0 100 0C66.7 0 33.3 0 16.7 0L0 0Z" fill="#080808"></path><path d="M0 119L16.7 115.5C33.3 112 66.7 105 100 99.5C133.3 94 166.7 90 200 95.2C233.3 100.3 266.7 114.7 300 114.2C333.3 113.7 366.7 98.3 400 94.3C433.3 90.3 466.7 97.7 500 102.8C533.3 108 566.7 111 600 107.8C633.3 104.7 666.7 95.3 700 95.8C733.3 96.3 766.7 106.7 800 103.5C833.3 100.3 866.7 83.7 883.3 75.3L900 67L900 0L883.3 0C866.7 0 833.3 0 800 0C766.7 0 733.3 0 700 0C666.7 0 633.3 0 600 0C566.7 0 533.3 0 500 0C466.7 0 433.3 0 400 0C366.7 0 333.3 0 300 0C266.7 0 233.3 0 200 0C166.7 0 133.3 0 100 0C66.7 0 33.3 0 16.7 0L0 0Z" fill="#0b0b0b"></path><path d="M0 45L16.7 42.3C33.3 39.7 66.7 34.3 100 33.8C133.3 33.3 166.7 37.7 200 41.3C233.3 45 266.7 48 300 49C333.3 50 366.7 49 400 54.8C433.3 60.7 466.7 73.3 500 71.2C533.3 69 566.7 52 600 49C633.3 46 666.7 57 700 62.8C733.3 68.7 766.7 69.3 800 67.5C833.3 65.7 866.7 61.3 883.3 59.2L900 57L900 0L883.3 0C866.7 0 833.3 0 800 0C766.7 0 733.3 0 700 0C666.7 0 633.3 0 600 0C566.7 0 533.3 0 500 0C466.7 0 433.3 0 400 0C366.7 0 333.3 0 300 0C266.7 0 233.3 0 200 0C166.7 0 133.3 0 100 0C66.7 0 33.3 0 16.7 0L0 0Z" fill="#0d0d0d"></path></svg>