<svg id="visual" viewBox="0 0 900 600" width="900" height="600" xmlns="http://www.w3.org/2000/svg" xmlns:xlink="http://www.w3.org/1999/xlink" version="1.1"><rect x="0" y="0" width="900" height="600" fill="#000"></rect><path d="M0 94L8.8 91.2C17.7 88.3 35.3 82.7 53 79.5C70.7 76.3 88.3 75.7 106 72C123.7 68.3 141.3 61.7 159 63.5C176.7 65.3 194.3 75.7 212 77.7C229.7 79.7 247.3 73.3 265 68.2C282.7 63 300.3 59 318 61.3C335.7 63.7 353.3 72.3 371 77C388.7 81.7 406.3 82.3 423.8 90.2C441.3 98 458.7 113 476.2 114.5C493.7 116 511.3 104 529 101.3C546.7 98.7 564.3 105.3 582 110C599.7 114.7 617.3 117.3 635 110.8C652.7 104.3 670.3 88.7 688 88.2C705.7 87.7 723.3 102.3 741 102.5C758.7 102.7 776.3 88.3 794 87.2C811.7 86 829.3 98 847 105.3C864.7 112.7 882.3 115.3 891.2 116.7L900 118L900 0L891.2 0C882.3 0 864.7 0 847 0C829.3 0 811.7 0 794 0C776.3 0 758.7 0 741 0C723.3 0 705.7 0 688 0C670.3 0 652.7 0 635 0C617.3 0 599.7 0 582 0C564.3 0 546.7 0 529 0C511.3 0 493.7 0 476.2 0C458.7 0 441.3 0 423.8 0C406.3 0 388.7 0 371 0C353.3 0 335.7 0 318 0C300.3 0 282.7 0 265 0C247.3 0 229.7 0 212 0C194.3 0 176.7 0 159 0C141.3 0 123.7 0 106 0C88.3 0 70.7 0 53 0C35.3 0 17.7 0 8.8 0L0 0Z" fill="#0d0d0d" stroke-linecap="round" stroke-linejoin="miter"></path></svg>